<svg version="1.1" id="Layer_1" xmlns="http://www.w3.org/2000/svg" xmlns:xlink="http://www.w3.org/1999/xlink" x="0px" y="0px"
	 viewBox="0 0 194.9 96.5" style="enable-background:new 0 0 194.9 96.5;" xml:space="preserve">
	 <g fill="#FFF">
<path d="M8,93.8c0,0.4-0.1,0.8-0.2,1.1c-0.3,0.3-0.5,0.6-0.8,0.8s-0.6,0.4-1,0.5s-0.8,0.2-1.2,0.2H0v-10h5.2
	c0.4,0,0.7,0.1,1,0.2c0.3,0.2,0.5,0.3,0.7,0.6c0.2,0.2,0.4,0.5,0.5,0.8s0.2,0.6,0.2,0.9c0,0.5-0.1,0.9-0.4,1.4
	c-0.3,0.4-0.6,0.7-1.1,1c0.6,0.2,1,0.5,1.4,0.9C7.8,92.6,8,93.2,8,93.8z M1.6,87.7v3h2.9c0.2,0,0.4,0,0.5-0.1
	c0.2-0.1,0.3-0.2,0.4-0.3c0.1-0.1,0.2-0.3,0.3-0.5c0.1-0.2,0.1-0.4,0.1-0.6c0-0.4-0.1-0.8-0.4-1.1c-0.2-0.3-0.6-0.4-0.9-0.4
	C4.6,87.7,1.6,87.7,1.6,87.7z M6.3,93.5c0-0.2,0-0.4-0.1-0.6c-0.1-0.2-0.2-0.4-0.3-0.5s-0.3-0.3-0.4-0.3C5.3,92,5.1,92,4.9,92H1.6
	v3.1h3.2c0.2,0,0.4,0,0.6-0.1s0.3-0.2,0.5-0.3c0.1-0.1,0.2-0.3,0.3-0.5C6.3,93.9,6.3,93.7,6.3,93.5z M14.2,95c0.5,0,1-0.1,1.3-0.3
	c0.4-0.2,0.6-0.5,0.8-0.8c0.2-0.3,0.4-0.7,0.5-1.1s0.1-0.9,0.1-1.3v-5.1h1.6v5.1c0,0.7-0.1,1.3-0.2,1.9c-0.2,0.6-0.4,1.1-0.8,1.6
	s-0.8,0.8-1.4,1.1c-0.6,0.3-1.2,0.4-2,0.4s-1.5-0.1-2-0.4c-0.6-0.3-1-0.7-1.3-1.1c-0.3-0.5-0.6-1-0.7-1.6c-0.2-0.6-0.2-1.2-0.2-1.9
	v-5.1h1.6v5.1c0,0.5,0,0.9,0.1,1.3s0.2,0.8,0.5,1.1c0.2,0.3,0.5,0.6,0.9,0.8C13.2,94.9,13.7,95,14.2,95z M26.9,88.7
	c-0.1-0.1-0.2-0.2-0.4-0.3c-0.2-0.1-0.4-0.2-0.6-0.3c-0.2-0.1-0.5-0.2-0.8-0.3c-0.3-0.1-0.6-0.1-0.9-0.1c-0.6,0-1.1,0.1-1.4,0.4
	c-0.3,0.2-0.5,0.6-0.5,1c0,0.2,0.1,0.4,0.2,0.6s0.3,0.3,0.5,0.4s0.5,0.2,0.8,0.3c0.3,0.1,0.7,0.2,1.1,0.3c0.5,0.1,0.9,0.3,1.4,0.4
	c0.4,0.1,0.8,0.3,1.1,0.5c0.3,0.2,0.5,0.5,0.7,0.8s0.2,0.7,0.2,1.2s-0.1,1-0.3,1.3c-0.2,0.4-0.5,0.7-0.8,0.9
	c-0.3,0.2-0.7,0.4-1.2,0.5c-0.4,0.1-0.9,0.2-1.4,0.2c-0.8,0-1.5-0.1-2.2-0.3c-0.7-0.2-1.4-0.6-1.9-1l0.7-1.4
	c0.1,0.1,0.3,0.3,0.5,0.4c0.2,0.2,0.5,0.3,0.8,0.4s0.6,0.2,1,0.3c0.4,0.1,0.8,0.1,1.1,0.1c0.6,0,1.1-0.1,1.4-0.3
	c0.3-0.2,0.5-0.5,0.5-1c0-0.3-0.1-0.5-0.2-0.6c-0.1-0.2-0.3-0.3-0.5-0.4s-0.5-0.2-0.9-0.3c-0.3-0.1-0.7-0.2-1.2-0.3
	c-0.5-0.1-0.9-0.3-1.3-0.4s-0.7-0.3-0.9-0.5c-0.2-0.2-0.4-0.5-0.6-0.7c-0.1-0.3-0.2-0.6-0.2-1c0-0.5,0.1-0.9,0.3-1.3
	c0.2-0.4,0.4-0.7,0.8-1c0.3-0.3,0.7-0.5,1.2-0.6c0.4-0.1,0.9-0.2,1.4-0.2c0.7,0,1.3,0.1,1.9,0.3c0.6,0.2,1.1,0.5,1.5,0.8
	C27.6,87.4,26.9,88.7,26.9,88.7z M30.5,96.4v-10h1.6v10H30.5z M36.6,89.3v7.1H35v-10h1.2l5.8,7.2v-7.2h1.6v10h-1.3L36.6,89.3z
	 M53.3,95v1.4h-6.9v-10h6.8v1.4H48v2.9h4.5V92H48v3.1h5.3V95z M61.4,88.7c-0.1-0.1-0.2-0.2-0.4-0.3c-0.2-0.1-0.4-0.2-0.6-0.3
	c-0.2-0.1-0.5-0.2-0.8-0.3c-0.3-0.1-0.6-0.1-0.9-0.1c-0.6,0-1.1,0.1-1.4,0.4c-0.3,0.2-0.5,0.6-0.5,1c0,0.2,0.1,0.4,0.2,0.6
	c0.1,0.2,0.3,0.3,0.5,0.4s0.5,0.2,0.8,0.3c0.3,0.1,0.7,0.2,1.1,0.3c0.5,0.1,0.9,0.3,1.4,0.4c0.4,0.1,0.8,0.3,1.1,0.5
	s0.5,0.5,0.7,0.8s0.2,0.7,0.2,1.2s-0.1,1-0.3,1.3c-0.2,0.4-0.5,0.7-0.8,0.9c-0.3,0.2-0.7,0.4-1.2,0.5c-0.4,0.1-0.9,0.2-1.4,0.2
	c-0.8,0-1.5-0.1-2.2-0.3c-0.7-0.2-1.4-0.6-1.9-1l0.7-1.4c0.1,0.1,0.3,0.3,0.5,0.4c0.2,0.2,0.5,0.3,0.8,0.4s0.6,0.2,1,0.3
	c0.4,0.1,0.8,0.1,1.1,0.1c0.6,0,1.1-0.1,1.4-0.3c0.3-0.2,0.5-0.5,0.5-1c0-0.3-0.1-0.5-0.2-0.6s-0.3-0.3-0.5-0.4s-0.5-0.2-0.9-0.3
	s-0.7-0.2-1.2-0.3c-0.5-0.1-0.9-0.3-1.3-0.4c-0.4-0.1-0.7-0.3-0.9-0.5s-0.4-0.5-0.6-0.7c-0.1-0.3-0.2-0.6-0.2-1
	c0-0.5,0.1-0.9,0.3-1.3s0.4-0.7,0.8-1c0.3-0.3,0.7-0.5,1.2-0.6c0.4-0.1,0.9-0.2,1.4-0.2c0.7,0,1.3,0.1,1.9,0.3
	c0.6,0.2,1.1,0.5,1.5,0.8L61.4,88.7L61.4,88.7z M70.7,88.7c-0.1-0.1-0.2-0.2-0.4-0.3c-0.2-0.1-0.4-0.2-0.6-0.3
	c-0.2-0.1-0.5-0.2-0.8-0.3c-0.3-0.1-0.6-0.1-0.9-0.1c-0.6,0-1.1,0.1-1.4,0.4c-0.3,0.2-0.5,0.6-0.5,1c0,0.2,0.1,0.4,0.2,0.6
	s0.3,0.3,0.5,0.4s0.5,0.2,0.8,0.3c0.3,0.1,0.7,0.2,1.1,0.3c0.5,0.1,0.9,0.3,1.4,0.4c0.4,0.1,0.8,0.3,1.1,0.5
	c0.3,0.2,0.5,0.5,0.7,0.8s0.2,0.7,0.2,1.2s-0.1,1-0.3,1.3c-0.2,0.4-0.5,0.7-0.8,0.9c-0.3,0.2-0.7,0.4-1.2,0.5
	c-0.4,0.1-0.9,0.2-1.4,0.2c-0.8,0-1.5-0.1-2.2-0.3c-0.7-0.2-1.4-0.6-1.9-1l0.7-1.4c0.1,0.1,0.3,0.3,0.5,0.4c0.2,0.2,0.5,0.3,0.8,0.4
	s0.6,0.2,1,0.3c0.4,0.1,0.8,0.1,1.1,0.1c0.6,0,1.1-0.1,1.4-0.3c0.3-0.2,0.5-0.5,0.5-1c0-0.3-0.1-0.5-0.2-0.6s-0.3-0.3-0.5-0.4
	s-0.5-0.2-0.9-0.3s-0.7-0.2-1.2-0.3c-0.5-0.1-0.9-0.3-1.3-0.4s-0.7-0.3-0.9-0.5c-0.2-0.2-0.4-0.5-0.6-0.7c-0.1-0.3-0.2-0.6-0.2-1
	c0-0.5,0.1-0.9,0.3-1.3c0.2-0.4,0.4-0.7,0.8-1c0.3-0.3,0.7-0.5,1.2-0.6c0.4-0.1,0.9-0.2,1.4-0.2c0.7,0,1.3,0.1,1.9,0.3
	c0.6,0.2,1.1,0.5,1.5,0.8L70.7,88.7L70.7,88.7z M83.9,95.1C83,96,82.1,96.5,81,96.5c-0.7,0-1.3-0.1-1.8-0.4s-1.1-0.7-1.5-1.1
	c-0.4-0.5-0.8-1-1-1.6s-0.4-1.3-0.4-1.9c0-0.7,0.1-1.3,0.4-1.9c0.2-0.6,0.6-1.1,1-1.6s0.9-0.8,1.5-1.1c0.6-0.3,1.2-0.4,1.9-0.4
	c0.9,0,1.7,0.2,2.4,0.6c0.6,0.4,1.1,0.9,1.5,1.6l-1.2,0.9c-0.3-0.5-0.6-1-1.1-1.2c-0.5-0.3-1-0.4-1.6-0.4c-0.5,0-0.9,0.1-1.3,0.3
	s-0.7,0.5-1,0.8s-0.5,0.7-0.6,1.2c-0.1,0.4-0.2,0.9-0.2,1.4s0.1,1,0.2,1.4c0.2,0.4,0.4,0.8,0.7,1.2c0.3,0.3,0.6,0.6,1,0.8
	c0.4,0.2,0.8,0.3,1.3,0.3c1,0,1.9-0.5,2.8-1.5v-1.4h-2.1v-1.2h3.4v5.1H84L83.9,95.1L83.9,95.1z M87.9,96.4v-10h4.4
	c0.5,0,0.9,0.1,1.3,0.3c0.4,0.2,0.7,0.4,1,0.7c0.3,0.3,0.5,0.7,0.6,1c0.2,0.4,0.2,0.8,0.2,1.2c0,0.3,0,0.7-0.1,1s-0.2,0.6-0.4,0.9
	c-0.2,0.3-0.4,0.5-0.6,0.7s-0.5,0.3-0.8,0.4l2.4,3.8H94l-2.2-3.5h-2.3v3.5H87.9z M89.5,91.5h2.8c0.2,0,0.4,0,0.6-0.1
	s0.3-0.2,0.5-0.4c0.1-0.2,0.2-0.4,0.3-0.6c0.1-0.2,0.1-0.5,0.1-0.7s0-0.5-0.1-0.7s-0.2-0.4-0.4-0.6c-0.1-0.2-0.3-0.3-0.5-0.4
	s-0.4-0.1-0.6-0.1h-2.7C89.5,87.7,89.5,91.5,89.5,91.5z M96.7,96.4l4.1-10h1.3l4,10h-1.7l-1.1-2.7h-3.9l-1.1,2.7
	C98.4,96.4,96.7,96.4,96.7,96.4z M101.4,88.1l-1.6,4.4h3.3L101.4,88.1z M109.2,89.3v7.1h-1.6v-10h1.2l5.8,7.2v-7.2h1.6v10h-1.3
	C114.9,96.4,109.2,89.3,109.2,89.3z M126.3,87.7H123v8.6h-1.6v-8.6H118v-1.4h8.3V87.7z M133.8,88.7c-0.1-0.1-0.2-0.2-0.4-0.3
	c-0.2-0.1-0.4-0.2-0.6-0.3c-0.2-0.1-0.5-0.2-0.8-0.3c-0.3-0.1-0.6-0.1-0.9-0.1c-0.6,0-1.1,0.1-1.4,0.4c-0.3,0.2-0.5,0.6-0.5,1
	c0,0.2,0.1,0.4,0.2,0.6c0.1,0.2,0.3,0.3,0.5,0.4s0.5,0.2,0.8,0.3c0.3,0.1,0.7,0.2,1.1,0.3c0.5,0.1,0.9,0.3,1.4,0.4
	c0.4,0.1,0.8,0.3,1.1,0.5s0.5,0.5,0.7,0.8s0.2,0.7,0.2,1.2s-0.1,1-0.3,1.3c-0.2,0.4-0.5,0.7-0.8,0.9c-0.3,0.2-0.7,0.4-1.2,0.5
	c-0.4,0.1-0.9,0.2-1.4,0.2c-0.8,0-1.5-0.1-2.2-0.3c-0.7-0.2-1.4-0.6-1.9-1l0.7-1.4c0.1,0.1,0.3,0.3,0.5,0.4c0.2,0.2,0.5,0.3,0.8,0.4
	s0.6,0.2,1,0.3c0.4,0.1,0.8,0.1,1.1,0.1c0.6,0,1.1-0.1,1.4-0.3c0.3-0.2,0.5-0.5,0.5-1c0-0.3-0.1-0.5-0.2-0.6
	c-0.1-0.2-0.3-0.3-0.5-0.4s-0.5-0.2-0.9-0.3c-0.3-0.1-0.7-0.2-1.2-0.3c-0.5-0.1-0.9-0.3-1.3-0.4c-0.4-0.1-0.7-0.3-0.9-0.5
	s-0.4-0.5-0.6-0.7c-0.1-0.3-0.2-0.6-0.2-1c0-0.5,0.1-0.9,0.3-1.3s0.4-0.7,0.8-1c0.3-0.3,0.7-0.5,1.2-0.6c0.4-0.1,0.9-0.2,1.4-0.2
	c0.7,0,1.3,0.1,1.9,0.3c0.6,0.2,1.1,0.5,1.5,0.8L133.8,88.7L133.8,88.7z M140,96.4v-10h4.2c0.5,0,0.9,0.1,1.3,0.3
	c0.4,0.2,0.7,0.4,1,0.7c0.3,0.3,0.5,0.7,0.6,1c0.2,0.4,0.2,0.8,0.2,1.2c0,0.4-0.1,0.8-0.2,1.2c-0.1,0.4-0.4,0.7-0.6,1
	c-0.3,0.3-0.6,0.6-1,0.7c-0.4,0.2-0.8,0.3-1.2,0.3h-2.7v3.5H140V96.4z M141.6,91.5h2.6c0.2,0,0.4,0,0.6-0.1c0.2-0.1,0.3-0.2,0.5-0.4
	c0.1-0.2,0.2-0.4,0.3-0.6s0.1-0.5,0.1-0.7c0-0.3,0-0.5-0.1-0.8s-0.2-0.4-0.4-0.6s-0.3-0.3-0.5-0.4s-0.4-0.1-0.6-0.1h-2.5L141.6,91.5
	L141.6,91.5z M153.5,96.5c-0.7,0-1.4-0.1-1.9-0.4c-0.6-0.3-1.1-0.7-1.5-1.1c-0.4-0.5-0.7-1-1-1.6c-0.2-0.6-0.3-1.2-0.3-1.9
	c0-0.7,0.1-1.3,0.4-1.9c0.2-0.6,0.6-1.2,1-1.6c0.4-0.5,0.9-0.8,1.5-1.1c0.6-0.3,1.2-0.4,1.9-0.4s1.4,0.1,1.9,0.4
	c0.6,0.3,1.1,0.7,1.5,1.2s0.7,1,1,1.6c0.2,0.6,0.3,1.2,0.3,1.9c0,0.7-0.1,1.3-0.4,1.9c-0.2,0.6-0.6,1.2-1,1.6
	c-0.4,0.5-0.9,0.8-1.5,1.1C154.8,96.3,154.2,96.5,153.5,96.5z M150.4,91.4c0,0.5,0.1,0.9,0.2,1.4c0.1,0.4,0.4,0.8,0.6,1.2
	c0.3,0.3,0.6,0.6,1,0.8c0.4,0.2,0.8,0.3,1.3,0.3s0.9-0.1,1.3-0.3c0.4-0.2,0.7-0.5,1-0.8s0.5-0.7,0.6-1.2c0.1-0.4,0.2-0.9,0.2-1.3
	c0-0.5-0.1-0.9-0.2-1.4c-0.2-0.4-0.4-0.8-0.6-1.2c-0.3-0.3-0.6-0.6-1-0.8c-0.4-0.2-0.8-0.3-1.3-0.3s-0.9,0.1-1.3,0.3
	c-0.4,0.2-0.7,0.5-1,0.8s-0.5,0.7-0.6,1.2C150.4,90.5,150.4,90.9,150.4,91.4L150.4,91.4z M160.2,96.4v-10h4.4c0.5,0,0.9,0.1,1.3,0.3
	c0.4,0.2,0.7,0.4,1,0.7c0.3,0.3,0.5,0.7,0.6,1c0.2,0.4,0.2,0.8,0.2,1.2c0,0.3,0,0.7-0.1,1s-0.2,0.6-0.4,0.9s-0.4,0.5-0.6,0.7
	c-0.2,0.2-0.5,0.3-0.8,0.4l2.4,3.8h-1.8l-2.2-3.5h-2.3v3.5H160.2z M161.8,91.5h2.8c0.2,0,0.4,0,0.6-0.1c0.2-0.1,0.3-0.2,0.5-0.4
	c0.1-0.2,0.2-0.4,0.3-0.6s0.1-0.5,0.1-0.7s0-0.5-0.1-0.7s-0.2-0.4-0.4-0.6c-0.1-0.2-0.3-0.3-0.5-0.4s-0.4-0.1-0.6-0.1h-2.7
	L161.8,91.5L161.8,91.5z M177.2,87.7h-3.3v8.6h-1.6v-8.6h-3.4v-1.4h8.3V87.7z M177,96.4l4.1-10h1.3l4,10h-1.7l-1.1-2.7h-3.9
	l-1.1,2.7H177z M181.7,88.1l-1.7,4.4h3.3L181.7,88.1z M187.9,96.4v-10h1.6V95h5.4v1.4H187.9z"/>
<path d="M160.8,6c-2.4-2.4-5.2-3.8-8.2-4.8c-3.2-0.8-7.7-1.2-13.8-1.2h-12.5v32.8H99.4v9.9h16.8
	c-0.5,4.6-2.7,8.8-6.6,12.1s-8.5,5-13.5,5c-5.8,0-11.3-2.3-16.3-6.6c-5.4-4.8-8.1-10.9-8.1-18.3c0-7.2,2.4-13.1,7.3-17.9
	c4.8-4.9,10.7-7.3,17.9-7.3c8,0,14.7,3.6,20.2,10.9l7.3-6.9c-4.2-4.8-8.5-8.2-12.9-10.3C106.7,1.1,101.8,0,96.6,0
	c-9.8,0-18.2,3.4-24.9,10.2c-6.9,6.8-10.2,15-10.2,24.7c0,1.2,0,2.3,0.1,3.3c-2.1-2.9-4.9-5-8.5-6.2c3.8-3.4,5.7-7.7,5.7-12.6
	c0-2.7-0.5-5.4-1.7-8.1c-1.2-2.7-2.7-4.8-4.6-6.6c-2-1.7-4.2-2.9-7.2-3.6C42.5,0.4,38.8,0,34,0H23.5v69.2h16c4.8,0,8.8-0.4,11.9-1.3
	c2.9-0.9,5.6-2.5,7.8-4.8c3.6-3.4,5.6-7.7,5.8-12.7c1.6,3.1,3.7,6,6.4,8.6c6.8,6.8,14.9,10.1,24.3,10.1c9.7,0,17.6-3.4,23.9-10.5
	c2.8-3.1,4.8-6.5,5.8-10.1c0.4-1.2,0.7-2.4,0.9-3.7V69h11V42.4h5c7.6,0,13.5-1.9,18-5.7c4.5-3.8,6.6-9,6.6-15.7
	C167,15.1,164.9,10.1,160.8,6z M34.1,9.6h3.7c3.6,0,6.2,0.8,8.1,2.5c1.9,1.7,2.8,4.1,2.8,7.4s-0.9,5.8-2.8,7.6
	c-1.9,1.7-4.6,2.5-8.6,2.5h-3.2C34.1,29.7,34.1,9.6,34.1,9.6z M51.1,56.6c-2.3,1.9-5.7,2.8-10.5,2.8h-6.5v-21h5.3
	c5.7,0,9.6,1.1,11.8,3.1s3.4,4.5,3.4,7.6C54.7,52.1,53.5,54.6,51.1,56.6z M141.6,32.8h-4.1V9.9h3.7c10.5,0,15.7,3.7,15.7,11.3
	C156.7,28.9,151.6,32.8,141.6,32.8z"/></g>
</svg>
