<svg id="Layer_1" data-name="Layer 1" xmlns="http://www.w3.org/2000/svg" viewBox="0 0 194.9 74"><title>BGPlogo_cny</title><g style="opacity:0.6000000238418579"><path d="M116.4,7.1a1.88,1.88,0,0,1-.2.8,2.65,2.65,0,0,1-.5.6,2.51,2.51,0,0,1-.7.4,2.77,2.77,0,0,1-.9.1h-3.6V1.6h3.9a1.45,1.45,0,0,1,.7.2,2.18,2.18,0,0,1,.5.4,1.69,1.69,0,0,1,.3.6,1.7,1.7,0,0,1,.1.7,1.69,1.69,0,0,1-.3,1,1.78,1.78,0,0,1-.8.7,1.83,1.83,0,0,1,1,.7,1.58,1.58,0,0,1,.5,1.2h0Zm-4.7-4.5V4.8h2.2a0.6,0.6,0,0,0,.4-0.1c0.1-.1.2-0.1,0.3-0.2a0.53,0.53,0,0,0,.2-0.3,0.6,0.6,0,0,0,.1-0.4,1.14,1.14,0,0,0-.3-0.8,0.91,0.91,0,0,0-.7-0.3h-2.2V2.6Zm3.5,4.3a0.48,0.48,0,0,0-.1-0.4c-0.1-.1-0.1-0.3-0.2-0.4l-0.3-.3a0.6,0.6,0,0,0-.4-0.1h-2.5V8h2.4a0.48,0.48,0,0,0,.4-0.1,0.77,0.77,0,0,0,.3-0.2,0.52,0.52,0,0,0,.2-0.4,0.34,0.34,0,0,0,.2-0.4h0ZM123.3,8V9h-5.2V1.6h5.1v1h-3.9V4.7h3.4v1h-3.4V8h4Zm7.2-5.4H128V9.1h-1.2V2.6h-2.5v-1h6.2v1Zm0,6.5,3-7.5h1l3,7.5h-1.3l-0.8-2h-2.9l-0.8,2h-1.2ZM134,2.9l-1.3,3.3h2.5Z" transform="translate(0 -1)" style="fill:#fff"/></g><path d="M103.5,5.5a14.47,14.47,0,0,0-6.2-3.6A45.19,45.19,0,0,0,86.9,1H77.5V25.7H57.2v7.5H69.9a13.53,13.53,0,0,1-5,9.1,15.55,15.55,0,0,1-10.2,3.8,18.49,18.49,0,0,1-12.3-5,17.5,17.5,0,0,1-6.1-13.8,18,18,0,0,1,5.5-13.5A18,18,0,0,1,55.3,8.3c6,0,11.1,2.7,15.2,8.2L76,11.3a32,32,0,0,0-9.7-7.8A25.78,25.78,0,0,0,55.1,1,25.65,25.65,0,0,0,36.3,8.7a25,25,0,0,0-7.7,18.6,20.08,20.08,0,0,0,.1,2.5,12.69,12.69,0,0,0-6.4-4.7,12.29,12.29,0,0,0,4.3-9.5,14.89,14.89,0,0,0-1.3-6.1,15,15,0,0,0-3.5-5,12,12,0,0,0-5.4-2.7A37.57,37.57,0,0,0,7.9,1H0V53.2H12.1a32.88,32.88,0,0,0,9-1A14.5,14.5,0,0,0,27,48.6,13.93,13.93,0,0,0,31.4,39a26.63,26.63,0,0,0,4.8,6.5,24.92,24.92,0,0,0,18.3,7.6,22.94,22.94,0,0,0,18-7.9,19.63,19.63,0,0,0,4.4-7.6,22.91,22.91,0,0,0,.7-2.8V53h8.3V33h3.8c5.7,0,10.2-1.4,13.6-4.3s5-6.8,5-11.8A16,16,0,0,0,103.5,5.5ZM8,8.2h2.8c2.7,0,4.7.6,6.1,1.9A7.17,7.17,0,0,1,19,15.7a7.4,7.4,0,0,1-2.1,5.7c-1.4,1.3-3.5,1.9-6.5,1.9H8V8.2ZM20.8,43.7c-1.7,1.4-4.3,2.1-7.9,2.1H8V30h4c4.3,0,7.2.8,8.9,2.3A7.32,7.32,0,0,1,23.5,38,7.1,7.1,0,0,1,20.8,43.7ZM89,25.7H85.9V8.5h2.8c7.9,0,11.8,2.8,11.8,8.5S96.6,25.7,89,25.7ZM8,72.3a3.59,3.59,0,0,1-.2,1.1,6,6,0,0,1-.8.8,3.13,3.13,0,0,1-1,.5,5,5,0,0,1-1.2.2H0v-10H5.2a3,3,0,0,1,1,.2,2,2,0,0,1,.7.6,2.18,2.18,0,0,1,.5.8,2.92,2.92,0,0,1,.2.9,2.5,2.5,0,0,1-.4,1.4,3.57,3.57,0,0,1-1.1,1,3.39,3.39,0,0,1,1.4.9A2.77,2.77,0,0,1,8,72.3ZM1.6,66.2v3H4.5A0.75,0.75,0,0,0,5,69.1a1.38,1.38,0,0,0,.4-0.3,2.19,2.19,0,0,0,.3-0.5,1.27,1.27,0,0,0,.1-0.6,1.5,1.5,0,0,0-.4-1.1,1.09,1.09,0,0,0-.9-0.4H1.6ZM6.3,72a1.27,1.27,0,0,0-.1-0.6,2.19,2.19,0,0,0-.3-0.5,1,1,0,0,0-.4-0.3,1.27,1.27,0,0,0-.6-0.1H1.6v3.1H4.8a1.27,1.27,0,0,0,.6-0.1c0.2-.1.3-0.2,0.5-0.3a2.19,2.19,0,0,0,.3-0.5A2,2,0,0,0,6.3,72Zm7.9,1.5a2.5,2.5,0,0,0,1.3-.3,2,2,0,0,0,.8-0.8,3.7,3.7,0,0,0,.5-1.1,5.7,5.7,0,0,0,.1-1.3V64.9h1.6V70a11.08,11.08,0,0,1-.2,1.9,4.81,4.81,0,0,1-.8,1.6,3.81,3.81,0,0,1-1.4,1.1,4.21,4.21,0,0,1-2,.4,4,4,0,0,1-2-.4,3.61,3.61,0,0,1-1.3-1.1,4.59,4.59,0,0,1-.7-1.6A5.84,5.84,0,0,1,9.9,70V64.9h1.6V70a5.28,5.28,0,0,0,.1,1.3,2.22,2.22,0,0,0,.5,1.1,2.36,2.36,0,0,0,.9.8A1.92,1.92,0,0,0,14.2,73.5Zm12.7-6.3a1.38,1.38,0,0,0-.4-0.3l-0.6-.3a6.89,6.89,0,0,0-.8-0.3,2.77,2.77,0,0,0-.9-0.1,2,2,0,0,0-1.4.4,1.23,1.23,0,0,0-.5,1,1.42,1.42,0,0,0,.2.6,1,1,0,0,0,.5.4,6.89,6.89,0,0,0,.8.3c0.3,0.1.7,0.2,1.1,0.3s0.9,0.3,1.4.4a3.7,3.7,0,0,1,1.1.5,2.7,2.7,0,0,1,.7.8,2.17,2.17,0,0,1,.2,1.2,2.5,2.5,0,0,1-.3,1.3,2.36,2.36,0,0,1-.8.9,3.34,3.34,0,0,1-1.2.5,5.9,5.9,0,0,1-1.4.2,7.8,7.8,0,0,1-2.2-.3,5.73,5.73,0,0,1-1.9-1l0.7-1.4a2.18,2.18,0,0,0,.5.4,2,2,0,0,0,.8.4c0.3,0.1.6,0.2,1,.3a4.48,4.48,0,0,0,1.1.1,2.65,2.65,0,0,0,1.4-.3,1.1,1.1,0,0,0,.5-1,0.85,0.85,0,0,0-.2-0.6,1,1,0,0,0-.5-0.4,4.65,4.65,0,0,0-.9-0.3,10.38,10.38,0,0,0-1.2-.3c-0.5-.1-0.9-0.3-1.3-0.4a1.93,1.93,0,0,1-.9-0.5c-0.2-.2-0.4-0.5-0.6-0.7a3,3,0,0,1-.2-1,2.77,2.77,0,0,1,.3-1.3,2.54,2.54,0,0,1,.8-1,2.28,2.28,0,0,1,1.2-.6,5.9,5.9,0,0,1,1.4-.2,5.82,5.82,0,0,1,1.9.3,5.3,5.3,0,0,1,1.5.8C27.6,65.9,26.9,67.2,26.9,67.2Zm3.6,7.7v-10h1.6v10H30.5Zm6.1-7.1v7.1H35v-10h1.2L42,72.1V64.9h1.6v10H42.3Zm16.7,5.7v1.4H46.4v-10h6.8v1.4H48v2.9h4.5v1.3H48v3.1h5.3V73.5Zm8.1-6.3a1.38,1.38,0,0,0-.4-0.3l-0.6-.3a6.89,6.89,0,0,0-.8-0.3,2.77,2.77,0,0,0-.9-0.1,2,2,0,0,0-1.4.4,1.23,1.23,0,0,0-.5,1,1.42,1.42,0,0,0,.2.6,1,1,0,0,0,.5.4,6.89,6.89,0,0,0,.8.3c0.3,0.1.7,0.2,1.1,0.3s0.9,0.3,1.4.4a3.7,3.7,0,0,1,1.1.5,2.7,2.7,0,0,1,.7.8,2.17,2.17,0,0,1,.2,1.2,2.5,2.5,0,0,1-.3,1.3,2.36,2.36,0,0,1-.8.9,3.34,3.34,0,0,1-1.2.5,5.9,5.9,0,0,1-1.4.2,7.8,7.8,0,0,1-2.2-.3,5.73,5.73,0,0,1-1.9-1l0.7-1.4a2.18,2.18,0,0,0,.5.4,2,2,0,0,0,.8.4c0.3,0.1.6,0.2,1,.3a4.48,4.48,0,0,0,1.1.1,2.65,2.65,0,0,0,1.4-.3,1.1,1.1,0,0,0,.5-1,0.85,0.85,0,0,0-.2-0.6,2.18,2.18,0,0,0-.5-0.4,4.65,4.65,0,0,0-.9-0.3c-0.4-.1-0.7-0.2-1.2-0.3s-0.9-.3-1.3-0.4a1.93,1.93,0,0,1-.9-0.5c-0.2-.2-0.4-0.5-0.6-0.7a3,3,0,0,1-.2-1,2.77,2.77,0,0,1,.3-1.3,2.54,2.54,0,0,1,.8-1,2.28,2.28,0,0,1,1.2-.6,5.9,5.9,0,0,1,1.4-.2,5.82,5.82,0,0,1,1.9.3,5.3,5.3,0,0,1,1.5.8l-0.9,1.2h0Zm9.3,0a1.38,1.38,0,0,0-.4-0.3l-0.6-.3a6.89,6.89,0,0,0-.8-0.3,2.77,2.77,0,0,0-.9-0.1,2,2,0,0,0-1.4.4,1.23,1.23,0,0,0-.5,1,1.42,1.42,0,0,0,.2.6,1,1,0,0,0,.5.4,6.89,6.89,0,0,0,.8.3c0.3,0.1.7,0.2,1.1,0.3s0.9,0.3,1.4.4a3.7,3.7,0,0,1,1.1.5,2.7,2.7,0,0,1,.7.8,2.17,2.17,0,0,1,.2,1.2,2.5,2.5,0,0,1-.3,1.3,2.36,2.36,0,0,1-.8.9,3.34,3.34,0,0,1-1.2.5,5.9,5.9,0,0,1-1.4.2,7.8,7.8,0,0,1-2.2-.3,5.73,5.73,0,0,1-1.9-1L65,72.3a2.18,2.18,0,0,0,.5.4,2,2,0,0,0,.8.4c0.3,0.1.6,0.2,1,.3a4.48,4.48,0,0,0,1.1.1,2.65,2.65,0,0,0,1.4-.3,1.1,1.1,0,0,0,.5-1,0.85,0.85,0,0,0-.2-0.6,2.18,2.18,0,0,0-.5-0.4,4.65,4.65,0,0,0-.9-0.3c-0.4-.1-0.7-0.2-1.2-0.3s-0.9-.3-1.3-0.4a1.93,1.93,0,0,1-.9-0.5c-0.2-.2-0.4-0.5-0.6-0.7a3,3,0,0,1-.2-1,2.77,2.77,0,0,1,.3-1.3,2.54,2.54,0,0,1,.8-1,2.28,2.28,0,0,1,1.2-.6,5.9,5.9,0,0,1,1.4-.2,5.82,5.82,0,0,1,1.9.3,5.3,5.3,0,0,1,1.5.8l-0.9,1.2h0Zm13.2,6.4A4,4,0,0,1,81,75a3.42,3.42,0,0,1-1.8-.4,8.28,8.28,0,0,1-1.5-1.1,5.37,5.37,0,0,1-1-1.6,6.46,6.46,0,0,1-.4-1.9,4.06,4.06,0,0,1,.4-1.9,5.37,5.37,0,0,1,1-1.6,4.18,4.18,0,0,1,1.5-1.1,4.06,4.06,0,0,1,1.9-.4,4.75,4.75,0,0,1,2.4.6A4.63,4.63,0,0,1,85,67.2l-1.2.9a2.58,2.58,0,0,0-1.1-1.2,2.93,2.93,0,0,0-1.6-.4,2.77,2.77,0,0,0-1.3.3,3.92,3.92,0,0,0-1,.8,2.28,2.28,0,0,0-.6,1.2,5,5,0,0,0,0,2.8,7.46,7.46,0,0,0,.7,1.2,3.92,3.92,0,0,0,1,.8,2.77,2.77,0,0,0,1.3.3A3.77,3.77,0,0,0,84,72.4V71H81.9V69.8h3.4v5.1H84l-0.1-1.3h0Zm4,1.3v-10h4.4a2.77,2.77,0,0,1,1.3.3,3.59,3.59,0,0,1,1,.7,2.66,2.66,0,0,1,.6,1,2.54,2.54,0,0,1,.2,1.2,3.4,3.4,0,0,1-.1,1,3.55,3.55,0,0,1-.4.9,4.35,4.35,0,0,1-.6.7,2,2,0,0,1-.8.4l2.4,3.8H94l-2.2-3.5H89.5v3.5H87.9ZM89.5,70h2.8a1.27,1.27,0,0,0,.6-0.1,1.76,1.76,0,0,0,.5-0.4l0.3-.6a2.5,2.5,0,0,0,0-1.4,2.09,2.09,0,0,0-.4-0.6,1,1,0,0,0-.5-0.4,1.27,1.27,0,0,0-.6-0.1H89.5C89.5,66.2,89.5,70,89.5,70Zm7.2,4.9,4.1-10h1.3l4,10h-1.7l-1.1-2.7H99.4l-1.1,2.7H96.7Zm4.7-8.3L99.8,71h3.3Zm7.8,1.2v7.1h-1.6v-10h1.2l5.8,7.2V64.9h1.6v10h-1.3Zm17.1-1.6H123v8.6h-1.6V66.2H118V64.8h8.3v1.4Zm7.5,1a1.38,1.38,0,0,0-.4-0.3l-0.6-.3a6.89,6.89,0,0,0-.8-0.3,2.77,2.77,0,0,0-.9-0.1,2,2,0,0,0-1.4.4,1.23,1.23,0,0,0-.5,1,1.42,1.42,0,0,0,.2.6,1,1,0,0,0,.5.4,6.89,6.89,0,0,0,.8.3c0.3,0.1.7,0.2,1.1,0.3s0.9,0.3,1.4.4a3.7,3.7,0,0,1,1.1.5,2.7,2.7,0,0,1,.7.8,2.17,2.17,0,0,1,.2,1.2,2.5,2.5,0,0,1-.3,1.3,2.36,2.36,0,0,1-.8.9,3.34,3.34,0,0,1-1.2.5,5.9,5.9,0,0,1-1.4.2,7.8,7.8,0,0,1-2.2-.3,5.73,5.73,0,0,1-1.9-1l0.7-1.4a2.18,2.18,0,0,0,.5.4,2,2,0,0,0,.8.4c0.3,0.1.6,0.2,1,.3a4.48,4.48,0,0,0,1.1.1,2.65,2.65,0,0,0,1.4-.3,1.1,1.1,0,0,0,.5-1,0.85,0.85,0,0,0-.2-0.6,1,1,0,0,0-.5-0.4,4.65,4.65,0,0,0-.9-0.3,10.38,10.38,0,0,0-1.2-.3c-0.5-.1-0.9-0.3-1.3-0.4a1.93,1.93,0,0,1-.9-0.5c-0.2-.2-0.4-0.5-0.6-0.7a3,3,0,0,1-.2-1,2.77,2.77,0,0,1,.3-1.3,2.54,2.54,0,0,1,.8-1,2.28,2.28,0,0,1,1.2-.6,5.9,5.9,0,0,1,1.4-.2,5.82,5.82,0,0,1,1.9.3,5.3,5.3,0,0,1,1.5.8l-0.9,1.2h0Zm6.2,7.7v-10h4.2a2.77,2.77,0,0,1,1.3.3,3.59,3.59,0,0,1,1,.7,2.66,2.66,0,0,1,.6,1,2.54,2.54,0,0,1,.2,1.2,5,5,0,0,1-.2,1.2,3.33,3.33,0,0,1-.6,1,2.29,2.29,0,0,1-1,.7,2.66,2.66,0,0,1-1.2.3h-2.7v3.5H140v0.1Zm1.6-4.9h2.6a1.27,1.27,0,0,0,.6-0.1,1.76,1.76,0,0,0,.5-0.4l0.3-.6a1.7,1.7,0,0,0,.1-0.7,2.2,2.2,0,0,0-.1-0.8,1.27,1.27,0,0,0-.4-0.6,1.76,1.76,0,0,0-.5-0.4,1.27,1.27,0,0,0-.6-0.1h-2.5V70h0Zm11.9,5a3.81,3.81,0,0,1-1.9-.4,5.83,5.83,0,0,1-1.5-1.1,8.64,8.64,0,0,1-1-1.6,5.82,5.82,0,0,1-.3-1.9,4.06,4.06,0,0,1,.4-1.9,4.35,4.35,0,0,1,1-1.6,4.18,4.18,0,0,1,1.5-1.1,4.06,4.06,0,0,1,1.9-.4,3.81,3.81,0,0,1,1.9.4,4.43,4.43,0,0,1,1.5,1.2,8.64,8.64,0,0,1,1,1.6,5.82,5.82,0,0,1,.3,1.9,4.06,4.06,0,0,1-.4,1.9,4.35,4.35,0,0,1-1,1.6,4.18,4.18,0,0,1-1.5,1.1A10.79,10.79,0,0,1,153.5,75Zm-3.1-5.1a6.75,6.75,0,0,0,.2,1.4,6.72,6.72,0,0,0,.6,1.2,3.92,3.92,0,0,0,1,.8,3,3,0,0,0,2.6,0,3.92,3.92,0,0,0,1-.8,2.28,2.28,0,0,0,.6-1.2,5.85,5.85,0,0,0,.2-1.3,6.75,6.75,0,0,0-.2-1.4l-0.6-1.2a3.92,3.92,0,0,0-1-.8,3,3,0,0,0-2.6,0,3.92,3.92,0,0,0-1,.8,2.28,2.28,0,0,0-.6,1.2,2.74,2.74,0,0,0-.2,1.3h0Zm9.8,5v-10h4.4a2.77,2.77,0,0,1,1.3.3,3.59,3.59,0,0,1,1,.7,2.66,2.66,0,0,1,.6,1,2.54,2.54,0,0,1,.2,1.2,3.4,3.4,0,0,1-.1,1,3.55,3.55,0,0,1-.4.9,4.35,4.35,0,0,1-.6.7,2,2,0,0,1-.8.4l2.4,3.8h-1.8l-2.2-3.5h-2.3v3.5h-1.7Zm1.6-4.9h2.8a1.27,1.27,0,0,0,.6-0.1,1.76,1.76,0,0,0,.5-0.4l0.3-.6a2.5,2.5,0,0,0,0-1.4,2.09,2.09,0,0,0-.4-0.6,1,1,0,0,0-.5-0.4,1.27,1.27,0,0,0-.6-0.1h-2.7V70h0Zm15.4-3.8h-3.3v8.6h-1.6V66.2h-3.4V64.8h8.3v1.4ZM177,74.9l4.1-10h1.3l4,10h-1.7l-1.1-2.7h-3.9l-1.1,2.7H177Zm4.7-8.3L180,71h3.3Zm6.2,8.3v-10h1.6v8.6h5.4v1.4h-7Z" transform="translate(0 -1)" style="fill:#fff"/><rect x="117.8" y="26.4" width="5.78" height="2.36" style="fill:#e73956"/><rect x="117.8" y="27.88" width="5.78" height="0.88" style="fill:#db1d3c"/><rect x="117.8" y="30.33" width="5.78" height="2.37" transform="translate(-2.29 9.64) rotate(-5)" style="fill:#e73956"/><rect x="117.87" y="31.81" width="5.78" height="0.88" transform="translate(-2.35 9.65) rotate(-5)" style="fill:#db1d3c"/><rect x="119.51" y="31.88" width="2.37" height="5.78" transform="translate(75.54 150.97) rotate(-85)" style="fill:#e73956"/><rect x="120.18" y="32.61" width="0.88" height="5.78" transform="translate(74.75 151.58) rotate(-85)" style="fill:#db1d3c"/><rect x="117.8" y="36.83" width="5.78" height="2.36" transform="translate(-2.85 9.67) rotate(-5)" style="fill:#e73956"/><rect x="117.87" y="38.31" width="5.78" height="0.88" transform="translate(-2.92 9.67) rotate(-5)" style="fill:#db1d3c"/><rect x="117.8" y="38.92" width="5.78" height="2.36" style="fill:#e73956"/><rect x="117.8" y="40.41" width="5.78" height="0.88" style="fill:#db1d3c"/><rect x="119.51" y="41.15" width="2.37" height="5.78" transform="translate(66.3 159.44) rotate(-85)" style="fill:#e73956"/><rect x="120.18" y="41.89" width="0.88" height="5.78" transform="translate(65.5 160.05) rotate(-85)" style="fill:#db1d3c"/><rect x="113.73" y="25.38" width="2.37" height="5.78" transform="translate(76.74 139.28) rotate(-85)" style="fill:#e73956"/><rect x="114.41" y="26.12" width="0.88" height="5.78" transform="translate(75.94 139.89) rotate(-85)" style="fill:#db1d3c"/><rect x="112.02" y="29.49" width="5.78" height="2.36" style="fill:#e73956"/><rect x="112.02" y="30.97" width="5.78" height="0.88" style="fill:#db1d3c"/><rect x="112.02" y="33.43" width="5.78" height="2.36" transform="translate(-2.58 9.14) rotate(-5)" style="fill:#e73956"/><rect x="112.09" y="34.91" width="5.78" height="0.88" transform="translate(-2.64 9.15) rotate(-5)" style="fill:#db1d3c"/><rect x="112.02" y="35.36" width="5.78" height="2.37" style="fill:#e73956"/><rect x="112.02" y="36.85" width="5.78" height="0.88" style="fill:#db1d3c"/><rect x="113.73" y="37.91" width="2.37" height="5.78" transform="translate(64.25 150.71) rotate(-85)" style="fill:#e73956"/><rect x="114.41" y="38.64" width="0.88" height="5.78" transform="translate(63.46 151.32) rotate(-85)" style="fill:#db1d3c"/><rect x="112.02" y="42.86" width="5.78" height="2.37" transform="translate(-3.4 9.18) rotate(-5)" style="fill:#e73956"/><rect x="112.09" y="44.34" width="5.78" height="0.88" transform="translate(-3.46 9.19) rotate(-5)" style="fill:#db1d3c"/><rect x="117.57" y="22.57" width="0.47" height="24.5" style="fill:#eb6543"/><path d="M116.45,48.33a1.35,1.35,0,0,1,2.7,0h-2.7Z" transform="translate(0 -1)" style="fill:#eb6543"/><path d="M120.52,53.29l-1.37-5h-2.7l-1.37,5a0.75,0.75,0,0,0,.77,1h3.9A0.75,0.75,0,0,0,120.52,53.29Z" transform="translate(0 -1)" style="fill:#fbd739"/><path d="M120.52,53.29l-1.37-5H117.8v6h2A0.75,0.75,0,0,0,120.52,53.29Z" transform="translate(0 -1)" style="fill:#e8bd00"/><rect x="112.71" y="14.34" width="10.18" height="10.18" rx="1.06" ry="1.06" transform="translate(20.76 87.99) rotate(-45)" style="fill:#e8bd00"/><rect x="114.2" y="15.83" width="7.21" height="7.21" transform="translate(20.77 88) rotate(-45)" style="fill:#fbd739"/><rect x="132.53" y="22.57" width="0.47" height="24.5" style="fill:#eb6543"/><path d="M131.41,48.33a1.35,1.35,0,0,1,2.7,0h-2.7Z" transform="translate(0 -1)" style="fill:#eb6543"/><path d="M135.48,53.29l-1.37-5h-2.7l-1.36,5a0.75,0.75,0,0,0,.77,1h3.9A0.75,0.75,0,0,0,135.48,53.29Z" transform="translate(0 -1)" style="fill:#fbd739"/><path d="M135.48,53.29l-1.37-5h-1.35v6h1.95A0.75,0.75,0,0,0,135.48,53.29Z" transform="translate(0 -1)" style="fill:#e8bd00"/><rect x="127.67" y="14.34" width="10.18" height="10.18" rx="1.06" ry="1.06" transform="translate(25.14 98.57) rotate(-45)" style="fill:#e8bd00"/><rect x="129.15" y="15.83" width="7.21" height="7.21" transform="translate(25.15 98.57) rotate(-45)" style="fill:#fbd739"/><path d="M132.76,36.42a3.66,3.66,0,1,0,3.66,3.66A3.66,3.66,0,0,0,132.76,36.42Zm1.06,4.72H131.7V39h2.12v2.12Z" transform="translate(0 -1)" style="fill:#fbd739"/><path d="M132.76,36.9a3.18,3.18,0,1,0,3.18,3.18A3.18,3.18,0,0,0,132.76,36.9Zm1,4.22h-2.09V39h2.09v2.08Z" transform="translate(0 -1)" style="fill:#eb6543"/><path d="M131.38,38.7v2.76h2.76V38.7h-2.76Zm2.44,2.44H131.7V39h2.12v2.12Z" transform="translate(0 -1)" style="fill:#fbd739"/><path d="M132.76,28a3.66,3.66,0,1,0,3.66,3.66A3.66,3.66,0,0,0,132.76,28Zm1.06,4.72H131.7V30.61h2.12v2.12Z" transform="translate(0 -1)" style="fill:#fbd739"/><path d="M132.76,28.49a3.18,3.18,0,1,0,3.18,3.18A3.18,3.18,0,0,0,132.76,28.49Zm1,4.22h-2.09V30.63h2.09v2.08Z" transform="translate(0 -1)" style="fill:#eb6543"/><path d="M131.38,30.29v2.76h2.76V30.29h-2.76Zm2.44,2.44H131.7V30.61h2.12v2.12Z" transform="translate(0 -1)" style="fill:#fbd739"/><path d="M165.72,30.58a1.36,1.36,0,0,1,1.49.69,10.21,10.21,0,0,1,.64,5.77H159.5S162.61,31.61,165.72,30.58Z" transform="translate(0 -1)" style="fill:#eb6543"/><path d="M162.23,53.91c-8,0-15.78-6.43-18.15-8.57a0.91,0.91,0,0,1,0-1.37c2.37-2.14,10.15-8.57,18.15-8.57,9.6,0,18.88,9.25,18.88,9.25S171.82,53.91,162.23,53.91Z" transform="translate(0 -1)" style="fill:#e73956"/><path d="M187.5,53.75c-7.7-1.59-9.89-9.09-9.89-9.09s2.19-7.49,9.89-9.09a0.75,0.75,0,0,1,.93.83,16.36,16.36,0,0,1-2.95,8.25,16.37,16.37,0,0,1,2.95,8.25A0.75,0.75,0,0,1,187.5,53.75Z" transform="translate(0 -1)" style="fill:#e73956"/><path d="M143.77,44.66a0.92,0.92,0,0,0,.31.68c2.37,2.14,10.15,8.57,18.15,8.57,6.54,0,12.94-4.3,16.34-7a13.17,13.17,0,0,0,8.92,6.87,0.75,0.75,0,0,0,.93-0.83,16.37,16.37,0,0,0-2.95-8.25H143.77Z" transform="translate(0 -1)" style="fill:#db1d3c"/><path d="M144.08,45.35a41.79,41.79,0,0,0,8.18,5.76,11,11,0,0,0,0-12.89A41.8,41.8,0,0,0,144.08,44,0.91,0.91,0,0,0,144.08,45.35Z" transform="translate(0 -1)" style="fill:#eb6543"/><circle cx="149.06" cy="43.66" r="1.41" style="fill:#e73956"/><path d="M166,49.49a0.75,0.75,0,0,1-.43-0.14,5.75,5.75,0,0,1,0-9.37,0.75,0.75,0,1,1,.87,1.22,4.25,4.25,0,0,0,0,6.93A0.75,0.75,0,0,1,166,49.49Z" transform="translate(0 -1)" style="fill:#eb6543"/><path d="M162.35,49.49a0.75,0.75,0,0,1-.43-0.14,5.75,5.75,0,0,1,0-9.37,0.75,0.75,0,1,1,.87,1.22,4.25,4.25,0,0,0,0,6.93A0.75,0.75,0,0,1,162.35,49.49Z" transform="translate(0 -1)" style="fill:#eb6543"/><circle cx="157.41" cy="17.12" r="8.19" style="fill:#eb6543"/><path d="M161.91,8.93c-1.95,1.95-5.38,1.67-5.38,1.67s-0.28-3.43,1.67-5.38,5.38-1.67,5.38-1.67S163.86,7,161.91,8.93Z" transform="translate(0 -1)" style="fill:#1e9470"/><path d="M156.67,6.41c1.95,1.94,1.67,5.38,1.67,5.38s-3.43.28-5.38-1.67-1.67-5.38-1.67-5.38S154.72,4.46,156.67,6.41Z" transform="translate(0 -1)" style="fill:#30a783"/><circle cx="161.69" cy="19.91" r="0.75" style="fill:#fbd739"/><circle cx="160.94" cy="16.05" r="0.75" style="fill:#fbd739"/><circle cx="158.35" cy="19.16" r="0.48" style="fill:#fbd739"/><circle cx="157.41" cy="22.37" r="0.64" style="fill:#fbd739"/><circle cx="175.23" cy="18.24" r="7.41" transform="translate(136.35 189.07) rotate(-83.19)" style="fill:#eb6543"/><path d="M172.17,9.5c1.54,2,4.65,2.07,4.65,2.07s0.62-3.05-.92-5-4.65-2.07-4.65-2.07S170.63,7.54,172.17,9.5Z" transform="translate(0 -1)" style="fill:#1e9470"/><path d="M177.15,7.8c-2,1.54-2.07,4.65-2.07,4.65s3.05,0.62,5-.92,2.07-4.65,2.07-4.65S179.1,6.26,177.15,7.8Z" transform="translate(0 -1)" style="fill:#30a783"/><circle cx="171.08" cy="20.28" r="0.68" transform="translate(130.67 186.75) rotate(-83.19)" style="fill:#fbd739"/><circle cx="172.17" cy="16.9" r="0.68" transform="translate(134.98 184.85) rotate(-83.19)" style="fill:#fbd739"/><circle cx="174.17" cy="19.97" r="0.44" transform="translate(133.7 189.54) rotate(-83.19)" style="fill:#fbd739"/><circle cx="174.66" cy="22.95" r="0.58" transform="translate(131.17 192.66) rotate(-83.19)" style="fill:#fbd739"/></svg>