<svg xmlns="http://www.w3.org/2000/svg" width="253.85" height="16" viewBox="0 0 4950 312"><g fill="#FFF"><path d="M617.1 27.12C606.39 16.66 594 9.55 579.91 5.78 565.96 2.02 545.31.13 517.98.13h-55.8v147.33H340.86l.08 44.57h75.51c-2.09 21.05-12.09 39.12-30 54.23-17.93 14.98-38.13 22.47-60.62 22.47-26.42 0-50.94-10.03-73.56-30.1-24.2-21.61-36.29-49.12-36.29-82.52 0-32.35 10.86-59.28 32.57-80.77 21.7-21.87 48.57-32.81 80.61-32.81 35.71 0 65.98 16.38 90.83 49.12l32.56-30.87c-18.97-21.44-38.25-36.93-57.87-46.47-20.53-9.53-42.63-14.3-66.3-14.3-44.07 0-81.47 15.21-112.2 45.62-30.73 30.29-46.1 67.18-46.1 110.68 0 5.14.22 10.2.66 15.17-9.51-13.13-22.23-22.39-38.19-27.78 17.23-15.45 25.86-34.33 25.86-56.64 0-12.22-2.65-24.31-7.94-36.27-5.16-11.82-12.15-21.7-20.98-29.63-8.68-7.66-19.33-13.1-31.96-16.32C85.04 1.62 68.27 0 47.24 0H0v311.18h71.87c21.45 0 39.3-1.95 53.55-5.84 13.03-4.03 24.78-11.22 35.23-21.57 16.24-15.7 24.89-34.7 25.95-56.99 7.22 13.97 16.82 26.98 28.79 39.04 30.21 30.29 66.5 45.43 108.87 45.43 43.42 0 79.18-15.66 107.3-46.99 12.42-13.98 21.25-28.99 26.48-45.04a161.81 161.81 0 0 0 4.14-16.54v108.5h49.25V191.97h22.83c33.95 0 60.93-8.64 80.94-25.94 20.01-17.29 30.01-40.72 30.01-70.29 0-27.62-9.37-50.49-28.11-68.62zM47.44 43.13h16.7c16.01 0 28.23 3.8 36.65 11.39 8.41 7.59 12.62 18.71 12.62 33.35 0 15.05-4.11 26.44-12.32 34.16-8.21 7.73-21.14 11.59-38.79 11.59H47.44V43.13zM124 254.55c-10.05 8.33-25.79 12.49-47.24 12.49H47.44v-94.11h24.03c25.52 0 43.23 4.5 53.14 13.5 10.18 9.13 15.27 20.42 15.27 33.85 0 13.85-5.29 25.27-15.88 34.27zm406.45-106.97h-18.56V44.96h16.43c47.07 0 70.61 16.82 70.61 50.47 0 34.77-22.83 52.15-68.48 52.15zM1042.18 206.38c0 8.48-1.74 16.07-5.2 22.76-3.46 6.71-8.11 12.37-13.94 17-5.84 4.64-12.72 8.18-20.63 10.64-7.91 2.47-16.32 3.7-25.22 3.7h-100.6V50.59H985.2c7.32 0 13.95 1.58 19.88 4.73 5.94 3.15 10.98 7.24 15.14 12.27 4.15 5.02 7.37 10.74 9.64 17.14 2.27 6.41 3.41 12.86 3.41 19.37 0 10.25-2.62 19.85-7.86 28.82-5.25 8.97-12.71 15.62-22.4 19.96 12.06 3.54 21.61 10 28.63 19.36s10.54 20.74 10.54 34.14zM909.83 79.26v61.79h61.13c4.15 0 7.96-.79 11.42-2.37 3.46-1.57 6.53-3.69 9.2-6.35 2.67-2.66 4.75-5.86 6.24-9.61 1.48-3.74 2.22-7.88 2.22-12.42 0-9.06-2.57-16.5-7.72-22.32-5.14-5.81-11.67-8.72-19.58-8.72h-62.91zm98.22 120.91c0-4.33-.74-8.47-2.22-12.41-1.49-3.94-3.47-7.39-5.94-10.35-2.47-2.95-5.49-5.32-9.05-7.09-3.56-1.78-7.42-2.66-11.57-2.66h-69.44v64.15h67.36c4.35 0 8.41-.84 12.17-2.51 3.75-1.68 7.02-3.94 9.79-6.8 2.77-2.86 4.94-6.21 6.53-10.06 1.58-3.84 2.37-7.93 2.37-12.27zM1172.45 232.1c11.07 0 20.27-2.16 27.59-6.5s13.21-10 17.66-17c4.45-6.99 7.61-14.97 9.5-23.94 1.87-8.97 2.81-18.18 2.81-27.65V50.59h33.54v106.42c0 14.39-1.69 27.94-5.05 40.65-3.36 12.72-8.71 23.85-16.02 33.41-7.32 9.56-16.77 17.1-28.34 22.62s-25.48 8.27-41.69 8.27c-16.82 0-31.02-2.9-42.59-8.72-11.57-5.81-20.92-13.6-28.04-23.35-7.12-9.76-12.27-20.94-15.43-33.56-3.17-12.61-4.75-25.72-4.75-39.31V50.59h33.24v106.43c0 9.65.93 18.97 2.82 27.93 1.87 8.97 5.04 16.96 9.49 23.95 4.45 7 10.39 12.61 17.81 16.85 7.42 4.24 16.57 6.35 27.45 6.35zM1437.44 99.96c-1.98-2.17-4.85-4.48-8.6-6.95-3.76-2.46-8.17-4.78-13.21-6.95-5.04-2.16-10.64-3.94-16.77-5.32-6.13-1.38-12.66-2.07-19.58-2.07-13.06 0-22.95 2.57-29.68 7.69-6.72 5.13-10.08 12.32-10.08 21.58 0 5.13 1.08 9.31 3.26 12.56 2.17 3.26 5.44 6.06 9.79 8.43 4.35 2.36 9.79 4.48 16.32 6.35 6.53 1.88 14.14 3.9 22.85 6.07 10.29 2.76 19.74 5.61 28.34 8.57 8.61 2.96 15.92 6.65 21.96 11.09 6.03 4.43 10.73 9.9 14.1 16.4 3.36 6.51 5.04 14.59 5.04 24.24 0 11.04-2.08 20.4-6.23 28.09-4.15 7.68-9.75 13.94-16.77 18.77s-15.18 8.38-24.48 10.64c-9.3 2.27-19.19 3.4-29.67 3.4-16.03 0-31.56-2.41-46.59-7.24-15.04-4.83-28.59-11.87-40.66-21.14l15.43-28.38c2.57 2.57 6.24 5.42 10.98 8.57 4.75 3.16 10.34 6.06 16.77 8.73 6.43 2.65 13.5 4.92 21.22 6.79 7.71 1.88 15.72 2.81 24.03 2.81 12.66 0 22.5-2.31 29.53-6.95 7.02-4.62 10.53-11.38 10.53-20.25 0-5.32-1.29-9.75-3.86-13.3-2.57-3.55-6.33-6.65-11.27-9.31-4.95-2.66-10.98-5.03-18.1-7.1-7.13-2.07-15.24-4.28-24.34-6.65-10.49-2.76-19.63-5.66-27.45-8.72-7.81-3.05-14.29-6.75-19.43-11.09-5.15-4.33-9.05-9.41-11.73-15.22-2.67-5.81-4-12.86-4-21.14 0-10.24 1.93-19.36 5.78-27.34 3.86-7.99 9.2-14.68 16.03-20.11 6.82-5.41 14.88-9.5 24.18-12.27 9.3-2.75 19.29-4.13 29.97-4.13 14.64 0 27.94 2.26 39.91 6.79 11.97 4.54 22.51 10.16 31.61 16.85l-15.13 27.21zM1514 260.48V50.88h33.24v209.6H1514zM1641.3 112.67v147.81h-33.23V50.59h26.11l120.48 151.36V50.88h33.53v209.6h-27.6L1641.3 112.67zM1990.57 231.22v29.26h-144.51V50.59h141.84v29.27h-108.61v59.71h94.07v27.5h-94.07v64.15h111.28zM2160.01 99.96c-1.98-2.17-4.85-4.48-8.6-6.95-3.76-2.46-8.16-4.78-13.21-6.95-5.04-2.16-10.63-3.94-16.76-5.32-6.14-1.38-12.67-2.07-19.59-2.07-13.06 0-22.95 2.57-29.67 7.69-6.73 5.13-10.09 12.32-10.09 21.58 0 5.13 1.08 9.31 3.26 12.56 2.18 3.26 5.44 6.06 9.79 8.43 4.35 2.36 9.8 4.48 16.32 6.35 6.53 1.88 14.15 3.9 22.85 6.07 10.29 2.76 19.74 5.61 28.34 8.57 8.61 2.96 15.93 6.65 21.96 11.09 6.04 4.43 10.73 9.9 14.1 16.4 3.36 6.51 5.04 14.59 5.04 24.24 0 11.04-2.07 20.4-6.23 28.09-4.15 7.68-9.74 13.94-16.77 18.77-7.02 4.83-15.18 8.38-24.47 10.64-9.31 2.27-19.2 3.4-29.68 3.4-16.02 0-31.56-2.41-46.59-7.24-15.04-4.83-28.59-11.87-40.65-21.14l15.43-28.38c2.57 2.57 6.23 5.42 10.98 8.57 4.75 3.16 10.33 6.06 16.76 8.73 6.43 2.65 13.51 4.92 21.22 6.79 7.71 1.88 15.73 2.81 24.04 2.81 12.65 0 22.5-2.31 29.52-6.95 7.02-4.62 10.54-11.38 10.54-20.25 0-5.32-1.29-9.75-3.86-13.3-2.57-3.55-6.34-6.65-11.28-9.31-4.95-2.66-10.98-5.03-18.1-7.1-7.12-2.07-15.24-4.28-24.33-6.65-10.49-2.76-19.64-5.66-27.45-8.72-7.82-3.05-14.3-6.75-19.44-11.09-5.15-4.33-9.05-9.41-11.72-15.22-2.67-5.81-4.01-12.86-4.01-21.14 0-10.24 1.93-19.36 5.79-27.34 3.85-7.99 9.2-14.68 16.02-20.11 6.83-5.41 14.88-9.5 24.18-12.27 9.3-2.75 19.29-4.13 29.98-4.13 14.63 0 27.93 2.26 39.91 6.79 11.97 4.54 22.5 10.16 31.6 16.85l-15.13 27.21zM2354.08 99.96c-1.98-2.17-4.84-4.48-8.6-6.95-3.76-2.46-8.16-4.78-13.21-6.95-5.04-2.16-10.63-3.94-16.76-5.32-6.14-1.38-12.67-2.07-19.59-2.07-13.05 0-22.95 2.57-29.67 7.69-6.73 5.13-10.09 12.32-10.09 21.58 0 5.13 1.08 9.31 3.26 12.56 2.18 3.26 5.44 6.06 9.79 8.43 4.35 2.36 9.8 4.48 16.32 6.35 6.53 1.88 14.15 3.9 22.85 6.07 10.29 2.76 19.74 5.61 28.34 8.57 8.61 2.96 15.93 6.65 21.96 11.09 6.04 4.43 10.73 9.9 14.1 16.4 3.36 6.51 5.04 14.59 5.04 24.24 0 11.04-2.07 20.4-6.23 28.09-4.15 7.68-9.74 13.94-16.76 18.77-7.03 4.83-15.19 8.38-24.48 10.64-9.31 2.27-19.2 3.4-29.68 3.4-16.02 0-31.56-2.41-46.59-7.24-15.03-4.83-28.59-11.87-40.65-21.14l15.43-28.38c2.57 2.57 6.23 5.42 10.98 8.57 4.75 3.16 10.33 6.06 16.76 8.73 6.43 2.65 13.51 4.92 21.22 6.79 7.72 1.88 15.73 2.81 24.04 2.81 12.66 0 22.5-2.31 29.52-6.95 7.02-4.62 10.54-11.38 10.54-20.25 0-5.32-1.29-9.75-3.86-13.3-2.57-3.55-6.33-6.65-11.28-9.31-4.95-2.66-10.98-5.03-18.1-7.1-7.12-2.07-15.24-4.28-24.33-6.65-10.49-2.76-19.64-5.66-27.45-8.72-7.82-3.05-14.3-6.75-19.44-11.09-5.15-4.33-9.05-9.41-11.72-15.22-2.67-5.81-4.01-12.86-4.01-21.14 0-10.24 1.93-19.36 5.79-27.34 3.86-7.99 9.2-14.68 16.02-20.11 6.83-5.41 14.89-9.5 24.19-12.27 9.29-2.75 19.29-4.13 29.97-4.13 14.64 0 27.94 2.26 39.91 6.79 11.97 4.54 22.5 10.16 31.6 16.85l-15.13 27.21zM2629.46 234.47c-17.21 18.32-37.29 27.49-60.24 27.49-13.65 0-26.46-3-38.43-9.01-11.97-6.01-22.35-14-31.15-23.95-8.81-9.95-15.73-21.38-20.78-34.29-5.04-12.91-7.56-26.26-7.56-40.06 0-14.19 2.52-27.69 7.56-40.5 5.05-12.81 11.97-24.04 20.78-33.7 8.8-9.66 19.23-17.3 31.3-22.91 12.07-5.62 25.23-8.43 39.47-8.43 19.78 0 36.4 4.19 49.85 12.57 13.45 8.38 23.64 19.46 30.57 33.25l-25.52 18.33c-5.74-11.43-13.5-20-23.3-25.72-9.79-5.71-20.62-8.57-32.49-8.57-9.69 0-18.5 2.12-26.41 6.36s-14.69 9.85-20.33 16.85c-5.64 6.99-9.99 15.12-13.05 24.38-3.07 9.27-4.6 18.93-4.6 28.98 0 10.64 1.67 20.59 5.04 29.85 3.36 9.27 8.06 17.35 14.1 24.25 6.03 6.9 13.1 12.36 21.21 16.4 8.11 4.04 16.92 6.06 26.41 6.06 21.37 0 40.56-10.34 57.57-31.04v-22.17h-44.21v-24.54h72.11v106.13h-27.9v-26.01zM2713.73 260.48V50.59h91.7c9.49 0 18.25 1.97 26.26 5.91 8.01 3.94 14.88 9.12 20.62 15.52 5.74 6.41 10.24 13.7 13.51 21.88 3.26 8.18 4.89 16.51 4.89 24.98 0 7.09-.99 13.89-2.96 20.39-1.98 6.51-4.75 12.52-8.31 18.04a58.335 58.335 0 0 1-13.06 14.34c-5.14 4.04-10.78 7.04-16.91 9.01l50.15 79.82h-37.69l-46.29-73.02h-48.67v73.02h-33.24zm33.24-102.28h58.16c4.75 0 9.05-1.04 12.91-3.11 3.86-2.07 7.17-4.92 9.94-8.57 2.77-3.64 4.95-7.83 6.53-12.56s2.37-9.76 2.37-15.08-.94-10.35-2.81-15.08c-1.89-4.73-4.36-8.87-7.42-12.41-3.07-3.55-6.63-6.36-10.68-8.43-4.06-2.07-8.27-3.1-12.62-3.1h-56.38v78.34zM2898.31 260.48l84.87-209.89h27.3l84.57 209.89h-35.31l-22.56-57.05h-81.3l-21.96 57.05h-35.61zm98.52-172.94l-35.02 91.35h68.85l-33.83-91.35zM3158.55 112.67v147.81h-33.23V50.59h26.11l120.48 151.36V50.88h33.54v209.6h-27.61l-119.29-147.81zM3517.32 79.85h-70.03v180.63h-33.24V79.85h-70.33V50.59h173.6v29.26zM3673.7 99.96c-1.98-2.17-4.84-4.48-8.6-6.95-3.76-2.46-8.16-4.78-13.21-6.95-5.04-2.16-10.63-3.94-16.76-5.32-6.14-1.38-12.67-2.07-19.59-2.07-13.06 0-22.95 2.57-29.67 7.69-6.73 5.13-10.09 12.32-10.09 21.58 0 5.13 1.08 9.31 3.26 12.56 2.18 3.26 5.44 6.06 9.79 8.43 4.35 2.36 9.8 4.48 16.32 6.35 6.53 1.88 14.14 3.9 22.85 6.07 10.29 2.76 19.74 5.61 28.34 8.57 8.61 2.96 15.93 6.65 21.96 11.09 6.03 4.43 10.73 9.9 14.1 16.4 3.36 6.51 5.04 14.59 5.04 24.24 0 11.04-2.07 20.4-6.23 28.09-4.15 7.68-9.75 13.94-16.77 18.77s-15.18 8.38-24.48 10.64c-9.3 2.27-19.19 3.4-29.67 3.4-16.02 0-31.56-2.41-46.59-7.24-15.03-4.83-28.59-11.87-40.65-21.14l15.43-28.38c2.57 2.57 6.23 5.42 10.98 8.57 4.75 3.16 10.33 6.06 16.76 8.73 6.43 2.65 13.5 4.92 21.22 6.79 7.72 1.88 15.73 2.81 24.04 2.81 12.65 0 22.5-2.31 29.52-6.95 7.02-4.62 10.54-11.38 10.54-20.25 0-5.32-1.29-9.75-3.86-13.3-2.58-3.55-6.33-6.65-11.28-9.31-4.95-2.66-10.98-5.03-18.1-7.1-7.12-2.07-15.24-4.28-24.33-6.65-10.49-2.76-19.64-5.66-27.45-8.72-7.82-3.05-14.3-6.75-19.44-11.09-5.15-4.33-9.05-9.41-11.72-15.22-2.67-5.81-4.01-12.86-4.01-21.14 0-10.24 1.93-19.36 5.79-27.34 3.86-7.99 9.2-14.68 16.02-20.11 6.83-5.41 14.89-9.5 24.19-12.27 9.29-2.75 19.29-4.13 29.97-4.13 14.64 0 27.94 2.26 39.91 6.79 11.97 4.54 22.5 10.16 31.6 16.85l-15.13 27.21zM3803.68 260.48V50.59h88.43c9.49 0 18.24 1.97 26.26 5.91 8.01 3.94 14.88 9.12 20.62 15.52 5.74 6.41 10.24 13.7 13.5 21.88 3.27 8.18 4.9 16.51 4.9 24.98 0 8.87-1.53 17.39-4.6 25.57-3.07 8.18-7.37 15.47-12.91 21.87-5.54 6.41-12.22 11.53-20.03 15.38-7.82 3.84-16.47 5.76-25.96 5.76h-56.98v73.02h-33.23zm33.23-102.28h54.9c4.75 0 9.05-.99 12.91-2.96 3.86-1.97 7.16-4.73 9.94-8.28 2.77-3.54 4.94-7.68 6.53-12.41 1.58-4.73 2.37-9.95 2.37-15.67 0-5.91-.89-11.24-2.67-15.97-1.78-4.73-4.26-8.81-7.42-12.26-3.17-3.45-6.78-6.11-10.83-7.98-4.06-1.88-8.26-2.81-12.61-2.81h-53.12v78.34zM4084.99 261.96c-14.84 0-28.34-3-40.51-9.01-12.16-6.01-22.65-14-31.45-23.95-8.81-9.95-15.58-21.33-20.33-34.15-4.75-12.8-7.12-25.91-7.12-39.31 0-14 2.52-27.4 7.56-40.21 5.05-12.81 12.02-24.14 20.93-34 8.9-9.85 19.48-17.68 31.75-23.5 12.26-5.81 25.61-8.72 40.06-8.72 14.83 0 28.34 3.11 40.5 9.31 12.17 6.21 22.6 14.34 31.31 24.39 8.7 10.05 15.43 21.44 20.18 34.15 4.75 12.71 7.12 25.67 7.12 38.87 0 14-2.52 27.4-7.57 40.21-5.04 12.81-12.02 24.09-20.92 33.85-8.9 9.75-19.44 17.54-31.6 23.35-12.17 5.81-25.48 8.72-39.91 8.72zm-65.58-106.43c0 9.86 1.53 19.42 4.6 28.68 3.06 9.27 7.46 17.44 13.2 24.54 5.74 7.09 12.66 12.76 20.77 16.99 8.11 4.24 17.21 6.36 27.31 6.36 10.28 0 19.53-2.22 27.74-6.65 8.21-4.44 15.14-10.3 20.77-17.59 5.64-7.29 9.94-15.47 12.91-24.54a88.646 88.646 0 0 0 4.45-27.79c0-10.05-1.58-19.66-4.74-28.82-3.17-9.16-7.62-17.24-13.36-24.24-5.74-6.99-12.66-12.61-20.77-16.85-8.12-4.24-17.12-6.36-27-6.36-10.29 0-19.54 2.22-27.75 6.66-8.21 4.43-15.14 10.19-20.77 17.29-5.64 7.09-9.94 15.22-12.91 24.39-2.97 9.16-4.45 18.47-4.45 27.93zM4225.64 260.48V50.59h91.69c9.5 0 18.25 1.97 26.27 5.91 8.01 3.94 14.88 9.12 20.62 15.52 5.74 6.41 10.24 13.7 13.5 21.88 3.27 8.18 4.9 16.51 4.9 24.98 0 7.09-.99 13.89-2.97 20.39-1.98 6.51-4.74 12.52-8.31 18.04a58.1 58.1 0 0 1-13.05 14.34c-5.15 4.04-10.79 7.04-16.92 9.01l50.15 79.82h-37.68l-46.29-73.02h-48.67v73.02h-33.24zm33.24-102.28h58.16c4.75 0 9.05-1.04 12.91-3.11 3.86-2.07 7.17-4.92 9.94-8.57 2.77-3.64 4.94-7.83 6.53-12.56 1.58-4.73 2.37-9.76 2.37-15.08s-.94-10.35-2.82-15.08-4.35-8.87-7.42-12.41c-3.07-3.55-6.63-6.36-10.68-8.43-4.05-2.07-8.26-3.1-12.61-3.1h-56.38v78.34zM4580.25 79.85h-70.03v180.63h-33.24V79.85h-70.32V50.59h173.59v29.26zM4575.5 260.48l84.87-209.89h27.3l84.57 209.89h-35.31l-22.55-57.05h-81.31l-21.96 57.05h-35.61zm98.52-172.94L4639 178.89h68.85l-33.83-91.35zM4803.7 260.48V50.59h33.23v180.62h113.06v29.27H4803.7z"/></g></svg>